<?xml version="1.0" encoding="utf-8"?>
<!-- Generator: Adobe Illustrator 24.0.2, SVG Export Plug-In . SVG Version: 6.00 Build 0)  -->
<svg version="1.1" id="Layer_1" xmlns="http://www.w3.org/2000/svg" xmlns:xlink="http://www.w3.org/1999/xlink" x="0px" y="0px"
	 viewBox="0 0 728.2 312" style="enable-background:new 0 0 728.2 312;" xml:space="preserve">
<style type="text/css">
	.st0{fill:#FFFFFF;}
	.st1{fill:#EB5666;}
</style>
<path class="st0" d="M169.3,196.6c-4.7-7.5-13.1-10.9-21.6-10.9c-12.4,0-25.3,5.9-25.3,19.9c0,10.9,6,15.7,25,21.8
	c18.4,5.9,35.5,11.9,35.5,35.2c0,23.6-20.3,34.7-41.7,34.7c-13.7,0-28.5-4.5-36.5-16.4l12-9.9c5,8.7,15.1,13.2,25.3,13.2
	c12.1,0,25.8-7,25.8-20.6c0-14.6-9.9-17.1-31-24.1c-16.8-5.5-29.5-12.9-29.5-32.7c0-22.8,19.6-34.2,40.4-34.2
	c13.2,0,24.5,3.7,33.2,13.9L169.3,196.6z"/>
<path class="st0" d="M285.7,188.8h-39.2v105.5h-14.1V188.8h-39.2v-13.1h92.5V188.8z"/>
<path class="st0" d="M429.4,175.7h30.3c23,0,47.2,3.3,47.2,32.7c0,17.3-11.2,28.5-29.6,31.3l33.7,54.6h-17.3L461.6,241h-18.1v53.3
	h-14.1V175.7z M443.5,228h12.6c15.6,0,35.8,0,35.8-19.6c0-17.1-14.9-19.6-28.6-19.6h-19.8V228z"/>
<path class="st0" d="M553.5,243.2l-44.2-67.5h17.9l33.3,53.6l34.3-53.6h16.9l-44.2,67.5v51.1h-14.1V243.2z"/>
<path class="st0" d="M47.1,17.8h26.1V62H124V17.8h26.1v118.6H124V85.1H73.2v51.3H47.1V17.8z"/>
<path class="st0" d="M172.6,51.3c3-7.4,7.6-14.1,13.4-19.7c5.8-5.5,12.7-9.7,20.3-12.5c16.6-5.8,34.7-5.8,51.3,0
	c7.5,2.7,14.4,7,20.3,12.5c5.8,5.5,10.3,12.3,13.3,19.7c3.3,8.2,4.9,17,4.8,25.8c0.1,8.8-1.5,17.6-4.8,25.8
	c-3,7.4-7.5,14.1-13.3,19.7c-5.8,5.5-12.7,9.7-20.3,12.5c-16.6,5.8-34.7,5.8-51.3,0c-7.5-2.7-14.4-7-20.3-12.5
	c-5.8-5.5-10.3-12.3-13.3-19.7c-3.3-8.2-4.9-17-4.8-25.8C167.8,68.3,169.4,59.5,172.6,51.3z M197.6,92.4c1.6,4.5,4.2,8.6,7.5,12.1
	c3.3,3.5,7.2,6.2,11.6,8c9.8,3.8,20.6,3.8,30.3,0c4.4-1.8,8.4-4.5,11.6-8c3.3-3.5,5.8-7.6,7.5-12.1c1.8-4.9,2.7-10.1,2.6-15.3
	c0-5.2-0.8-10.4-2.6-15.3c-1.6-4.5-4.2-8.6-7.5-12.1c-3.3-3.5-7.2-6.2-11.6-8c-9.8-3.8-20.6-3.8-30.3,0c-4.4,1.8-8.4,4.5-11.6,8
	c-3.3,3.5-5.8,7.6-7.5,12.1c-1.8,4.9-2.7,10-2.7,15.3C194.9,82.3,195.8,87.5,197.6,92.4L197.6,92.4z"/>
<path class="st0" d="M410.8,17.8h80.6v24.1h-54.4v22h51.4V88h-51.4v24.3h57.5v24.1h-83.6V17.8z"/>
<path class="st0" d="M516.3,17.8h26.1v94.5h48.4v24.1h-74.5V17.8z"/>
<path class="st0" d="M663.9,46.8c-2.2-2.8-5.2-4.9-8.6-6c-3.3-1.2-6.8-1.8-10.3-1.9c-2,0-3.9,0.2-5.9,0.7c-2,0.4-3.9,1.1-5.7,2.1
	c-1.8,0.9-3.3,2.2-4.4,3.8c-1.1,1.7-1.7,3.7-1.7,5.7c-0.2,3.2,1.3,6.3,4,8.2c3.1,2.1,6.5,3.8,10.1,4.9c4.1,1.3,8.5,2.7,13.2,4
	c4.6,1.3,9,3.2,13.2,5.7c4.1,2.5,7.6,5.8,10.1,9.9c2.7,4.1,4,9.7,4,16.6c0.1,6-1.1,11.9-3.7,17.3c-2.4,4.8-5.8,9-10,12.2
	c-4.3,3.3-9.3,5.8-14.6,7.2c-12.8,3.5-26.4,3.1-39-1.2c-6.9-2.5-13.1-6.4-18.4-11.4l18.8-20.4c2.7,3.6,6.1,6.4,10.1,8.3
	c5.9,2.9,12.7,3.7,19.1,2.2c2.1-0.5,4-1.2,5.9-2.3c1.7-0.9,3.1-2.3,4.2-3.9c1.1-1.6,1.6-3.6,1.6-5.5c0.1-3.3-1.4-6.5-4.1-8.5
	c-3.1-2.3-6.6-4.1-10.3-5.3c-4.2-1.4-8.7-2.9-13.5-4.4c-4.7-1.4-9.2-3.4-13.4-5.9c-4.1-2.4-7.6-5.7-10.3-9.7
	c-2.7-4-4.1-9.3-4.1-15.9c-0.1-5.8,1.2-11.6,3.8-16.8c2.4-4.7,5.8-8.8,10-12.1c4.3-3.3,9.2-5.8,14.5-7.3c5.5-1.6,11.2-2.4,16.9-2.4
	c6.6,0,13.1,0.9,19.4,2.8c6.3,1.9,12,5.2,16.9,9.6L663.9,46.8z"/>
<path class="st1" d="M415.1,208.6c-2.3-15.1-12.5-27.4-25.8-31.8v-14c0-21.9-17.7-39.6-39.6-39.6c0,0,0,0,0,0l0,0
	c-21.9,0-39.6,17.7-39.6,39.6c0,0,0,0,0,0v14c-13.4,4.4-23.5,16.7-25.8,31.8c-2,13.1,1.9,27.1,11.1,40.7
	c10.9,15.9,28.7,30.8,53.1,44c0.4,0.2,0.8,0.3,1.2,0.3c0.4,0,0.8-0.1,1.2-0.3c24.4-13.3,42.3-28.1,53.1-44
	C413.2,235.7,417,221.6,415.1,208.6z M327.3,162.8c0-6,2.3-14.1,6.5-18.4c8.7-8.7,22.9-8.8,31.6,0c0,0,0,0,0,0
	c4.2,4.2,6.5,12.4,6.5,18.4v13.1c-8.5,1.9-16.3,7.3-22.4,15.8c-6-8.4-13.8-13.9-22.4-15.8V162.8z M395,241.8
	c-8.8,13.8-23.7,26.8-44.1,38.8c-0.4,0.2-0.8,0.3-1.3,0.4l0,0c-0.5,0-0.9-0.1-1.3-0.4c-20.5-11.9-35.3-25-44.1-38.8
	c-7.4-11.5-10.2-23.5-8-33.6c2.4-11.2,10.6-19.1,20.9-20.1c12.5-1.3,24.2,7.5,31.7,23.5c0.2,0,0.5,0,0.9,0s0.6,0,0.8,0
	c7.4-16,19.2-24.8,31.7-23.5c10.3,1.1,18.5,9,20.9,20.1C405.3,218.3,402.4,230.3,395,241.8L395,241.8z"/>
<path class="st1" d="M355.4,240.2c5.1-3.2,6.6-10,3.4-15.1c-2-3.2-5.5-5.1-9.2-5.1l0,0c-6,0-10.9,4.9-10.9,10.9
	c0,3.8,1.9,7.3,5.1,9.3l-3.3,19.7c-0.2,1.4,0.7,2.7,2.1,3c0.2,0,0.3,0,0.5,0h13.2c1.4,0,2.6-1.1,2.6-2.6c0-0.1,0-0.3,0-0.4
	L355.4,240.2z"/>
<path class="st0" d="M336.6,117c4.2-1.5,8.6-2.2,13.1-2.3l0,0c4.5,0,8.9,0.8,13.1,2.3V40.9h33.8V17.8h-93.8v23.1h33.8V117z"/>
</svg>
